<?xml version="1.0" standalone="no"?>
<!DOCTYPE svg PUBLIC "-//W3C//DTD SVG 20010904//EN"
 "http://www.w3.org/TR/2001/REC-SVG-20010904/DTD/svg10.dtd">
<svg version="1.0" xmlns="http://www.w3.org/2000/svg"
 width="200.000000pt" height="200.000000pt" viewBox="0 0 200.000000 200.000000"
 preserveAspectRatio="xMidYMid meet">

<g transform="translate(0.000000,200.000000) scale(0.100000,-0.100000)"
fill="#000000" stroke="none">
<path d="M0 1000 l0 -1000 1000 0 1000 0 0 1000 0 1000 -1000 0 -1000 0 0
-1000z m581 389 c75 -26 95 -51 195 -255 53 -107 99 -194 103 -193 3 0 47 83
96 183 50 101 93 182 98 179 4 -2 7 3 7 11 0 28 64 66 121 72 30 3 52 4 49 1
-3 -3 -24 -8 -46 -10 -70 -8 -101 -48 -220 -287 l-106 -215 -105 210 c-58 116
-113 218 -122 229 -30 34 -87 55 -155 58 -36 1 -67 0 -69 -2 -3 -3 70 -156
162 -340 155 -311 169 -335 192 -332 13 1 77 19 142 39 l119 37 30 60 c17 34
34 63 38 66 4 3 10 17 14 33 3 15 11 27 17 27 6 0 7 5 3 12 -5 7 -3 8 6 3 10
-6 12 -4 7 9 -5 11 -3 15 5 10 7 -5 9 -2 5 9 -3 9 0 18 9 21 8 3 14 4 14 1 0
-16 -134 -265 -143 -265 -7 0 -5 -5 4 -10 12 -7 32 -3 71 14 38 17 55 20 55
12 0 -7 -5 -13 -11 -13 -6 0 -20 -1 -31 -2 -17 -1 -18 -3 -5 -12 12 -9 11 -10
-6 -6 -11 2 -29 -2 -40 -11 -16 -12 -16 -14 -1 -9 9 4 17 2 17 -3 0 -6 5 -10
11 -10 5 0 7 5 4 10 -7 12 5 13 23 2 8 -6 -11 -17 -57 -32 l-70 -24 -66 -134
c-36 -74 -67 -133 -69 -131 -2 2 -27 50 -55 105 l-50 101 -43 -8 c-66 -13
-209 -10 -251 5 -38 14 -77 42 -77 57 0 4 19 -2 43 -13 29 -15 63 -21 112 -22
87 -1 185 12 185 25 0 5 -83 176 -185 379 l-185 370 88 0 c49 0 104 -5 123
-11z m630 -328 c-12 -22 -31 -28 -31 -10 0 5 5 7 10 4 6 -4 10 6 10 21 0 20 3
25 11 17 8 -8 8 -17 0 -32z m14 -261 c-3 -5 -12 -10 -18 -10 -7 0 -6 4 3 10
19 12 23 12 15 0z m0 -50 c-3 -5 -12 -10 -18 -10 -7 0 -6 4 3 10 19 12 23 12
15 0z m-40 -20 c-3 -5 -13 -6 -21 -3 -12 4 -13 8 -3 14 15 9 32 2 24 -11z"/>
<path d="M1099 1333 c-13 -16 -12 -17 4 -4 9 7 17 15 17 17 0 8 -8 3 -21 -13z"/>
</g>
</svg>
